<svg id="Layer_1" data-name="Layer 1" xmlns="http://www.w3.org/2000/svg" viewBox="0 0 120.12 28.5"><title>120x120 SVG white edited</title><path d="M36.44,49.2c.2-1.49.94-2.27,2.23-2.35h2.18V63.39h2.67v4.39h-7V53.89C36.48,52.36,36.47,50.79,36.44,49.2Z" transform="translate(0 -45.61)" style="fill:#fff"/><path d="M45.5,57.42A2.34,2.34,0,0,1,47.69,55H58.85v9.66A3.53,3.53,0,0,1,58.64,66a2.54,2.54,0,0,1-1.59,1.48,4.8,4.8,0,0,1-1.25.26H43.12v-4.3h2.36v-6Zm8.93,6v-4H49.85v4Z" transform="translate(0 -45.61)" style="fill:#fff"/><path d="M61.13,57.42A2.45,2.45,0,0,1,63.42,55H74.55v8.39H77v4.39H74.63a9.41,9.41,0,0,1-1.26,3.43,11.12,11.12,0,0,1-2.74,2.9H65.45c.55-.41,1.08-.81,1.6-1.26a11.21,11.21,0,0,0,1.42-1.42,9.67,9.67,0,0,0,1.12-1.66,7.25,7.25,0,0,0,.68-2H63c-1.33,0-2-.7-1.84-2.16v-4.1C61.15,60.18,61.15,58.82,61.13,57.42Zm9,5.94v-4h-4.6v4Z" transform="translate(0 -45.61)" style="fill:#fff"/><path d="M79.18,63.39V57.45A2.4,2.4,0,0,1,81.39,55h2.15v3.88a12.13,12.13,0,0,1,1.47-2,5.93,5.93,0,0,1,1.36-1.13,4,4,0,0,1,1.35-.51,13.81,13.81,0,0,1,1.44-.18h11.62v8.32h2.5v4.39H76.65V63.39Zm17.23,0v-4H89.17a7.72,7.72,0,0,0-1.52.11,4.67,4.67,0,0,0-1.56.54,5.59,5.59,0,0,0-1.51,1.23,8.83,8.83,0,0,0-1.36,2.14Z" transform="translate(0 -45.61)" style="fill:#fff"/><path d="M102.93,63.39H115.8v-4h-8.54a3.39,3.39,0,0,1-.89-.15,1.69,1.69,0,0,1-.72-.45,2.15,2.15,0,0,1-.48-.81,3.74,3.74,0,0,1-.15-1.29V55.06h15.1v9.72a3.27,3.27,0,0,1-.93,2,4,4,0,0,1-2.22,1h-14Zm8-14.43a2.08,2.08,0,0,1,.89.17,2.16,2.16,0,0,1,1.36,2.09,2.27,2.27,0,0,1-.17.86,2.57,2.57,0,0,1-.48.73,2.33,2.33,0,0,1-.72.48,2.43,2.43,0,0,1-1.8,0,2.07,2.07,0,0,1-.72-.48,2.5,2.5,0,0,1-.48-.73,2.1,2.1,0,0,1-.17-.86,2.16,2.16,0,0,1,.65-1.61,2.07,2.07,0,0,1,.72-.48A2.24,2.24,0,0,1,110.91,49Z" transform="translate(0 -45.61)" style="fill:#fff"/><path d="M33.65,53.78s1.39,8.5-3.11,10.81-13.76,3.87-13.76,3.87-3.43-5.24-7.47-.37c-1.13-.52-1.06-2.63-1.06-2.63S9.68,52,8.73,50.28c-.26-1.28-1.5-1.76-2.06-1.43v1L0,52.06V45.8H6.5l.07.72s4.37-2.06,5.07,0S12,57.27,12,59s0,4.74,10.71,3.83c7-.68,7.81-4.64,7.78-5.63v-3A5.91,5.91,0,0,0,33.65,53.78Z" transform="translate(0 -45.61)" style="fill:#fff"/><circle cx="27.02" cy="24.73" r="3.5" style="fill:#fff"/><circle cx="12.83" cy="24.72" r="3.5" style="fill:#fff"/><circle cx="24.42" cy="5.61" r="2.25" style="fill:#fff"/><circle cx="18.28" cy="5.61" r="2.25" style="fill:#fff"/><path d="M105.49,73a.78.78,0,0,1,.21,0l.16.11a.62.62,0,0,1,.11.17.67.67,0,0,1,0,.2.56.56,0,0,1-.15.37.91.91,0,0,1-.16.11.49.49,0,0,1-.41,0,.62.62,0,0,1-.17-.11.42.42,0,0,1-.11-.16.78.78,0,0,1,0-.21.79.79,0,0,1,0-.2.62.62,0,0,1,.11-.17l.17-.11A.67.67,0,0,1,105.49,73Z" transform="translate(0 -45.61)" style="fill:#fff"/><path d="M110,72.62a1.52,1.52,0,0,1-.5,1,1.86,1.86,0,0,1-2.41-.1,2,2,0,0,1-.44-1.4,2,2,0,0,1,.46-1.4,1.6,1.6,0,0,1,1.28-.48,1.66,1.66,0,0,1,1.15.39,1.39,1.39,0,0,1,.48,1h-1a.69.69,0,0,0,0-.24.64.64,0,0,0-.13-.19.47.47,0,0,0-.2-.12.57.57,0,0,0-.26,0,.61.61,0,0,0-.55.28,1.59,1.59,0,0,0-.18.8,1.53,1.53,0,0,0,.18.81.63.63,0,0,0,.55.28.62.62,0,0,0,.44-.18.77.77,0,0,0,.2-.48Z" transform="translate(0 -45.61)" style="fill:#fff"/><path d="M112.28,74.05a1.79,1.79,0,0,1-1.35-.51,1.87,1.87,0,0,1-.5-1.37,1.91,1.91,0,0,1,.5-1.4,2,2,0,0,1,2.69,0,1.92,1.92,0,0,1,.5,1.4,1.83,1.83,0,0,1-.5,1.37A1.72,1.72,0,0,1,112.28,74.05Zm0-.81a.72.72,0,0,0,.64-.28,1.6,1.6,0,0,0,0-1.61.88.88,0,0,0-1.24,0h0l0,0a1.65,1.65,0,0,0,0,1.61.78.78,0,0,0,.65.3Z" transform="translate(0 -45.61)" style="fill:#fff"/><path d="M114.78,74V70.35h.91v.58a.78.78,0,0,1,.16-.28,1.1,1.1,0,0,1,.91-.4,1,1,0,0,1,.8.32.77.77,0,0,1,.19.28l.12-.2a1,1,0,0,1,.86-.4,1.21,1.21,0,0,1,.92.35,1.34,1.34,0,0,1,.33,1V74h-1V71.84a1.09,1.09,0,0,0-.13-.61.43.43,0,0,0-.41-.18.54.54,0,0,0-.45.17.82.82,0,0,0-.16.54V74h-1V71.68c0-.42-.2-.63-.57-.63a.52.52,0,0,0-.44.17.88.88,0,0,0-.16.54V74Z" transform="translate(0 -45.61)" style="fill:#fff"/></svg>