<svg id="Layer_1" data-name="Layer 1" xmlns="http://www.w3.org/2000/svg" viewBox="0 0 118.9 28.21"><defs><style>.cls-1{fill:#fff;}</style></defs><title>120x120 SVG white</title><path class="cls-1" d="M36.62,49.45c.19-1.47.93-2.24,2.21-2.32H41V63.5h2.64v4.34h-7V54.1C36.66,52.58,36.65,51,36.62,49.45Z" transform="translate(-0.55 -45.89)"/><path class="cls-1" d="M45.59,57.59a2.29,2.29,0,0,1,2.17-2.39H58.81v9.55A3.76,3.76,0,0,1,58.59,66a2.4,2.4,0,0,1-.61.9,2.58,2.58,0,0,1-1,.56,5.19,5.19,0,0,1-1.23.26H43.23V63.5h2.34v-6Zm8.83,5.91v-4H49.89v4Z" transform="translate(-0.55 -45.89)"/><path class="cls-1" d="M61.06,57.59a2.4,2.4,0,0,1,2.26-2.39h11v8.3h2.47v4.34H74.42a9.18,9.18,0,0,1-1.25,3.4,11,11,0,0,1-2.71,2.87H65.33c.55-.4,1.07-.8,1.59-1.25a10.36,10.36,0,0,0,1.4-1.41,8.75,8.75,0,0,0,1.11-1.64,7,7,0,0,0,.68-2H62.94c-1.32,0-1.93-.69-1.82-2.13V61.66C61.08,60.33,61.08,59,61.06,57.59ZM70,63.47v-4H65.46v4Z" transform="translate(-0.55 -45.89)"/><path class="cls-1" d="M78.92,63.5V57.62a2.36,2.36,0,0,1,2.19-2.39h2.13v3.84a11.47,11.47,0,0,1,1.45-2A6.1,6.1,0,0,1,86,55.94a4.16,4.16,0,0,1,1.34-.5,13.42,13.42,0,0,1,1.42-.17h11.5V63.5h2.48v4.34H76.42V63.5ZM96,63.5v-4H88.81a8.41,8.41,0,0,0-1.5.1,4.71,4.71,0,0,0-1.54.54,5.7,5.7,0,0,0-1.5,1.22,8.68,8.68,0,0,0-1.35,2.12Z" transform="translate(-0.55 -45.89)"/><path class="cls-1" d="M102.43,63.5h12.74v-4h-8.45a3.25,3.25,0,0,1-.88-.15,1.66,1.66,0,0,1-.72-.45,2.1,2.1,0,0,1-.47-.79,4,4,0,0,1-.15-1.29V55.25h15v9.62a3.24,3.24,0,0,1-.92,2,4,4,0,0,1-2.2,1h-13.9Zm7.9-14.29a2.51,2.51,0,0,1,.89.17,2.12,2.12,0,0,1,.71.48,2.16,2.16,0,0,1,.63,1.59,2.19,2.19,0,0,1-.17.85,2.3,2.3,0,0,1-.47.72,2.16,2.16,0,0,1-.72.48,2.38,2.38,0,0,1-1.78,0,2,2,0,0,1-.71-.48,2.33,2.33,0,0,1-.48-.72,2.26,2.26,0,0,1-.17-.85,2.17,2.17,0,0,1,.65-1.59,2,2,0,0,1,.71-.48A2.37,2.37,0,0,1,110.33,49.21Z" transform="translate(-0.55 -45.89)"/><path class="cls-1" d="M33.86,54s1.38,8.41-3.08,10.7-13.62,3.82-13.62,3.82-3.4-5.18-7.4-.36c-1.12-.51-1-2.6-1-2.6s1.42-13.36.48-15c-.25-1.27-1.49-1.74-2-1.41v1L.55,52.28v-6.2H7l.08.72s4.32-2,5,0,.39,10.64.32,12.39,0,4.68,10.6,3.79c6.94-.68,7.74-4.6,7.71-5.58v-3A5.81,5.81,0,0,0,33.86,54Z" transform="translate(-0.55 -45.89)"/><circle class="cls-1" cx="26.75" cy="24.47" r="3.46"/><circle class="cls-1" cx="12.7" cy="24.47" r="3.46"/><circle class="cls-1" cx="24.17" cy="5.55" r="2.23"/><circle class="cls-1" cx="18.1" cy="5.56" r="2.23"/><path class="cls-1" d="M105,73a.78.78,0,0,1,.21,0,.91.91,0,0,1,.16.11.45.45,0,0,1,.11.17.34.34,0,0,1,0,.2.51.51,0,0,1-.15.36.91.91,0,0,1-.16.11.47.47,0,0,1-.4,0,.62.62,0,0,1-.17-.11.46.46,0,0,1-.11-.16.52.52,0,0,1,0-.4,1,1,0,0,1,.11-.17l.17-.11A.59.59,0,0,1,105,73Z" transform="translate(-0.55 -45.89)"/><path class="cls-1" d="M109.38,72.63a1.57,1.57,0,0,1-.49,1.05,1.85,1.85,0,0,1-2.39-.11,2,2,0,0,1-.44-1.38,2,2,0,0,1,.46-1.38,1.59,1.59,0,0,1,1.27-.48,1.67,1.67,0,0,1,1.13.38,1.35,1.35,0,0,1,.48,1h-1a.86.86,0,0,0,0-.24.67.67,0,0,0-.14-.19.47.47,0,0,0-.2-.12.53.53,0,0,0-.25,0,.62.62,0,0,0-.55.27,1.7,1.7,0,0,0-.18.8,1.59,1.59,0,0,0,.18.8.66.66,0,0,0,.55.28.58.58,0,0,0,.43-.18.77.77,0,0,0,.2-.48Z" transform="translate(-0.55 -45.89)"/><path class="cls-1" d="M111.69,74.05a1.72,1.72,0,0,1-1.33-.5,1.87,1.87,0,0,1-.51-1.36,1.9,1.9,0,0,1,.51-1.38,2,2,0,0,1,2.66,0,2.16,2.16,0,0,1,0,2.74A1.75,1.75,0,0,1,111.69,74.05Zm0-.8a.71.71,0,0,0,.63-.28,1.56,1.56,0,0,0,0-1.59.87.87,0,0,0-1.22,0h0l0,0A1.66,1.66,0,0,0,111,73a.79.79,0,0,0,.65.3Z" transform="translate(-0.55 -45.89)"/><path class="cls-1" d="M114.16,74V70.39h.9V71a.92.92,0,0,1,.16-.27,1.08,1.08,0,0,1,.9-.4,1,1,0,0,1,.8.32.8.8,0,0,1,.18.27l.12-.19a1,1,0,0,1,.85-.4,1.18,1.18,0,0,1,.91.34,1.34,1.34,0,0,1,.33,1V74h-1V71.86a1.06,1.06,0,0,0-.13-.6.42.42,0,0,0-.4-.18.57.57,0,0,0-.46.17.84.84,0,0,0-.15.53V74h-.95V71.71q0-.63-.57-.63a.54.54,0,0,0-.43.17.85.85,0,0,0-.16.53V74Z" transform="translate(-0.55 -45.89)"/></svg>