<svg id="Layer_1" data-name="Layer 1" xmlns="http://www.w3.org/2000/svg" viewBox="0 0 150 150"><defs><style>.cls-1{fill:#fff;}</style></defs><title>150x150 SVG white</title><path class="cls-1" d="M45.65,64.79c.24-1.85,1.16-2.82,2.77-2.92h2.7V82.43h3.32v5.45H45.7V70.62C45.7,68.72,45.68,66.77,45.65,64.79Z"/><path class="cls-1" d="M56.91,75c.18-1.85,1.09-2.83,2.72-3H73.5v12a4.43,4.43,0,0,1-.27,1.61,3,3,0,0,1-.77,1.13,3.24,3.24,0,0,1-1.2.71,6.29,6.29,0,0,1-1.55.32H53.94V82.42h2.94l0-7.49ZM68,82.43v-5l-5.69,0v5Z"/><path class="cls-1" d="M76.33,75c.26-1.86,1.21-2.84,2.84-3H93V82.43h3.1v5.45h-3a11.58,11.58,0,0,1-1.56,4.26,13.59,13.59,0,0,1-3.41,3.6H81.69c.69-.5,1.35-1,2-1.56a14,14,0,0,0,1.76-1.77,11.82,11.82,0,0,0,1.39-2.06,8.86,8.86,0,0,0,.85-2.46h-9c-1.65,0-2.42-.87-2.29-2.68v-5.1C76.35,78.44,76.35,76.74,76.33,75Zm11.23,7.39v-5H81.85v5Z"/><path class="cls-1" d="M98.76,82.43l0-7.39c.23-1.85,1.14-2.83,2.74-3h2.68v4.82A14.33,14.33,0,0,1,106,74.35a7.37,7.37,0,0,1,1.69-1.41,5,5,0,0,1,1.68-.63,15.35,15.35,0,0,1,1.79-.22H125.6V82.43h3.11v5.45H95.61V82.43Zm21.41,0v-5h-9a9.85,9.85,0,0,0-1.88.13,6,6,0,0,0-1.94.67,7.3,7.3,0,0,0-1.88,1.53,10.9,10.9,0,0,0-1.69,2.66Z"/><path class="cls-1" d="M128.27,82.43h16v-5H133.65a4.61,4.61,0,0,1-1.1-.19,2.08,2.08,0,0,1-.9-.56,2.56,2.56,0,0,1-.59-1,4.62,4.62,0,0,1-.19-1.61v-2h18.77V84.15a4,4,0,0,1-1.16,2.52,4.93,4.93,0,0,1-2.76,1.2H128.27Zm9.92-17.94a2.81,2.81,0,0,1,1.11.21,2.73,2.73,0,0,1,.9.6,2.69,2.69,0,0,1,.79,2,2.63,2.63,0,0,1-.22,1.07,2.87,2.87,0,0,1-.59.9,2.68,2.68,0,0,1-.9.6,3,3,0,0,1-2.23,0,2.59,2.59,0,0,1-.9-.6,3.08,3.08,0,0,1-.6-.9,2.8,2.8,0,0,1-.21-1.07,2.73,2.73,0,0,1,.81-2,2.59,2.59,0,0,1,.9-.6A2.8,2.8,0,0,1,138.19,64.49Z"/><path class="cls-1" d="M42.18,70.48s1.73,10.57-3.87,13.44-17.1,4.8-17.1,4.8-4.26-6.51-9.28-.46C10.52,87.62,10.61,85,10.61,85s1.78-16.77.6-18.87c-.32-1.59-1.87-2.18-2.56-1.77v1.23L.36,68.34V60.56H8.44l.09.9s5.43-2.56,6.29,0,.5,13.36.41,15.55,0,5.88,13.31,4.76c8.71-.85,9.71-5.77,9.67-7V71A7.31,7.31,0,0,0,42.18,70.48Z"/><circle class="cls-1" cx="33.94" cy="91.05" r="4.35"/><circle class="cls-1" cx="16.31" cy="91.04" r="4.35"/><circle class="cls-1" cx="30.71" cy="67.29" r="2.8"/><circle class="cls-1" cx="23.08" cy="67.3" r="2.8"/><path class="cls-1" d="M131.45,94.38a.75.75,0,0,1,.26.05.9.9,0,0,1,.2.14.6.6,0,0,1,.14.21.56.56,0,0,1,0,.25.62.62,0,0,1-.19.45.66.66,0,0,1-.2.14.62.62,0,0,1-.5,0,.6.6,0,0,1-.21-.14.48.48,0,0,1-.14-.2.7.7,0,0,1-.05-.25.74.74,0,0,1,.05-.25.6.6,0,0,1,.14-.21.77.77,0,0,1,.21-.14A.64.64,0,0,1,131.45,94.38Z"/><path class="cls-1" d="M137,93.89a1.93,1.93,0,0,1-.62,1.31,2.31,2.31,0,0,1-3-.13,2.45,2.45,0,0,1-.55-1.73,2.51,2.51,0,0,1,.57-1.74A2,2,0,0,1,135,91a2.08,2.08,0,0,1,1.42.48,1.69,1.69,0,0,1,.6,1.26h-1.2a.94.94,0,0,0-.06-.3.81.81,0,0,0-.17-.24.79.79,0,0,0-.25-.15,1.13,1.13,0,0,0-.32,0,.78.78,0,0,0-.68.35,2,2,0,0,0-.23,1,1.86,1.86,0,0,0,.23,1,.78.78,0,0,0,.68.35.75.75,0,0,0,.55-.22,1,1,0,0,0,.25-.6Z"/><path class="cls-1" d="M139.89,95.67a2.2,2.2,0,0,1-1.67-.63,2.33,2.33,0,0,1-.63-1.7,2.38,2.38,0,0,1,.63-1.74,2.46,2.46,0,0,1,3.34,0,2.41,2.41,0,0,1,.62,1.74,2.32,2.32,0,0,1-.62,1.7A2.17,2.17,0,0,1,139.89,95.67Zm0-1a.94.94,0,0,0,.8-.35,2,2,0,0,0,0-2,1.09,1.09,0,0,0-1.55-.05l-.06.05a2.08,2.08,0,0,0,0,2A1,1,0,0,0,139.89,94.69Z"/><path class="cls-1" d="M143,95.56V91.07h1.13v.72a1,1,0,0,1,.2-.34,1.34,1.34,0,0,1,1.13-.5,1.25,1.25,0,0,1,1,.4,1,1,0,0,1,.23.34l.15-.24a1.22,1.22,0,0,1,1.07-.5,1.48,1.48,0,0,1,1.14.43,1.65,1.65,0,0,1,.41,1.2v3h-1.2V92.92a1.4,1.4,0,0,0-.16-.75.57.57,0,0,0-.51-.23.69.69,0,0,0-.57.22,1,1,0,0,0-.19.66v2.74h-1.2V92.73c0-.53-.24-.79-.71-.79a.65.65,0,0,0-.54.22,1.05,1.05,0,0,0-.2.66v2.74Z"/></svg>