<svg id="Layer_1" data-name="Layer 1" xmlns="http://www.w3.org/2000/svg" viewBox="0 0 148.46 35.19"><defs><style>.cls-1{fill:#28a6d9;}.cls-2{fill:#f39438;}</style></defs><title>150x150 SVG</title><path class="cls-1" d="M46,63.8c.23-1.84,1.15-2.8,2.75-2.9h2.67V81.33h3.29v5.42H46.05c0-2,0-3.92,0-5.82s0-3.79,0-5.66,0-3.79,0-5.68S46,65.76,46,63.8Z" transform="translate(-0.96 -59.36)"/><path class="cls-1" d="M57.19,74c.19-1.84,1.09-2.81,2.71-2.93H73.69V83a4.34,4.34,0,0,1-.27,1.61,3.22,3.22,0,0,1-.76,1.12,3.41,3.41,0,0,1-1.2.71,6,6,0,0,1-1.54.31H54.24V81.33h2.93l0-7.45Zm11.06,7.34v-5l-5.66,0v4.94Z" transform="translate(-0.96 -59.36)"/><path class="cls-1" d="M76.5,74c.26-1.85,1.2-2.83,2.82-2.93H93.06V81.33h3.08v5.42H93.22A11.61,11.61,0,0,1,91.66,91a13.61,13.61,0,0,1-3.39,3.57H81.84c.68-.5,1.34-1,2-1.55a15.4,15.4,0,0,0,1.76-1.76,12,12,0,0,0,1.37-2,8.86,8.86,0,0,0,.85-2.45h-9c-1.65,0-2.4-.86-2.27-2.66s0-3.39,0-5S76.5,75.69,76.5,74Zm11.17,7.34v-5H82v5Z" transform="translate(-0.96 -59.36)"/><path class="cls-1" d="M98.81,81.33l0-7.34c.23-1.84,1.14-2.81,2.73-2.93h2.67l0,4.79A15.47,15.47,0,0,1,106,73.3a7.7,7.7,0,0,1,1.68-1.39,5.11,5.11,0,0,1,1.67-.63,16.41,16.41,0,0,1,1.8-.22h14.33V81.33h3.1v5.42H95.66V81.33Zm21.28,0v-5h-9a11.08,11.08,0,0,0-1.88.13,6.26,6.26,0,0,0-1.93.67,7.28,7.28,0,0,0-1.86,1.52,11.13,11.13,0,0,0-1.68,2.64Z" transform="translate(-0.96 -59.36)"/><path class="cls-1" d="M128.13,81.33H144v-5H133.49a3.9,3.9,0,0,1-1.1-.18,2.21,2.21,0,0,1-.89-.56,2.68,2.68,0,0,1-.58-1,5,5,0,0,1-.19-1.61v-2H149.4v3.1c0,1,0,1.94,0,2.9s0,1.94,0,2.91v3.08a3.94,3.94,0,0,1-1.16,2.5,4.86,4.86,0,0,1-2.74,1.2H128.13ZM138,63.5a2.91,2.91,0,0,1,1.1.21,2.79,2.79,0,0,1,.89.6,2.63,2.63,0,0,1,.58.9,2.74,2.74,0,0,1,.22,1.1,2.64,2.64,0,0,1-.22,1.08,2.79,2.79,0,0,1-.58.89,2.61,2.61,0,0,1-.89.59,2.74,2.74,0,0,1-1.1.22,2.78,2.78,0,0,1-1.11-.22,2.61,2.61,0,0,1-.89-.59,3,3,0,0,1-.58-.89,2.64,2.64,0,0,1-.22-1.08,2.74,2.74,0,0,1,.22-1.1,2.66,2.66,0,0,1,1.47-1.5A3,3,0,0,1,138,63.5Z" transform="translate(-0.96 -59.36)"/><path class="cls-1" d="M42.56,69.45S44.28,80,38.7,82.82s-17,4.76-17,4.76-4.24-6.47-9.24-.46c-1.41-.63-1.32-3.21-1.32-3.21s1.77-16.68.59-18.76C11.42,63.56,9.88,63,9.2,63.38V64.6L1,67.32V59.57H9l.09.91s5.4-2.54,6.26,0,.5,13.28.4,15.46,0,5.85,13.24,4.73c8.65-.84,9.65-5.73,9.6-7V70A7.33,7.33,0,0,0,42.56,69.45Z" transform="translate(-0.96 -59.36)"/><circle class="cls-1" cx="33.41" cy="30.53" r="4.32"/><circle class="cls-1" cx="15.88" cy="30.53" r="4.32"/><circle class="cls-1" cx="30.2" cy="6.92" r="2.78"/><circle class="cls-1" cx="22.61" cy="6.93" r="2.78"/><path class="cls-2" d="M131.3,93.22a.53.53,0,0,1,.25,0,.6.6,0,0,1,.21.14.9.9,0,0,1,.14.2.74.74,0,0,1,0,.25.7.7,0,0,1,0,.25.67.67,0,0,1-.35.34.65.65,0,0,1-.5,0,.56.56,0,0,1-.2-.14.48.48,0,0,1-.14-.2.7.7,0,0,1-.05-.25.74.74,0,0,1,.05-.25.66.66,0,0,1,.14-.2.56.56,0,0,1,.2-.14A.53.53,0,0,1,131.3,93.22Z" transform="translate(-0.96 -59.36)"/><path class="cls-2" d="M136.85,92.73a1.94,1.94,0,0,1-.62,1.3,2,2,0,0,1-1.38.47,2,2,0,0,1-1.56-.6,2.44,2.44,0,0,1-.55-1.72,2.52,2.52,0,0,1,.57-1.73,1.94,1.94,0,0,1,1.54-.64,2,2,0,0,1,1.41.47,1.71,1.71,0,0,1,.59,1.25h-1.2a.94.94,0,0,0-.07-.3.55.55,0,0,0-.17-.23.58.58,0,0,0-.25-.15.78.78,0,0,0-.31-.06.76.76,0,0,0-.67.35,1.89,1.89,0,0,0-.23,1,1.74,1.74,0,0,0,.23,1,.8.8,0,0,0,1.21.13,1,1,0,0,0,.26-.59Z" transform="translate(-0.96 -59.36)"/><path class="cls-2" d="M139.69,94.5a2.23,2.23,0,0,1-1.67-.63,2.31,2.31,0,0,1-.61-1.69,2.41,2.41,0,0,1,.61-1.73,2.49,2.49,0,0,1,3.33,0,2.41,2.41,0,0,1,.62,1.73,2.31,2.31,0,0,1-.62,1.69A2.21,2.21,0,0,1,139.69,94.5Zm0-1a1,1,0,0,0,.8-.34,1.62,1.62,0,0,0,.27-1,1.65,1.65,0,0,0-.27-1,1,1,0,0,0-.8-.35,1,1,0,0,0-.8.35,1.65,1.65,0,0,0-.27,1,1.62,1.62,0,0,0,.27,1A.94.94,0,0,0,139.69,93.52Z" transform="translate(-0.96 -59.36)"/><path class="cls-2" d="M142.78,94.39V89.92h1.12v.72a1.38,1.38,0,0,1,.2-.33,1.32,1.32,0,0,1,1.13-.5,1.25,1.25,0,0,1,1,.4,1.14,1.14,0,0,1,.23.33l.15-.23a1.2,1.2,0,0,1,1.06-.5,1.47,1.47,0,0,1,1.13.43,1.64,1.64,0,0,1,.41,1.19v3H148V91.77a1.31,1.31,0,0,0-.16-.74.57.57,0,0,0-.5-.24.71.71,0,0,0-.57.22,1,1,0,0,0-.19.66v2.72H145.4V91.57c0-.52-.24-.78-.7-.78a.68.68,0,0,0-.55.22,1,1,0,0,0-.19.66v2.72h-1.18Z" transform="translate(-0.96 -59.36)"/></svg>