<svg id="Layer_1" data-name="Layer 1" xmlns="http://www.w3.org/2000/svg" viewBox="0 0 111.53 26.44"><path d="M38.06,55.71c.17-1.38.86-2.1,2.07-2.18h2V68.88H44.6V73H38.09c0-1.49,0-2.95,0-4.38s0-2.84,0-4.25V60.06c0-1.42,0-2.87,0-4.35" transform="translate(-4.21 -52.38)" style="fill:#feffff"/><path d="M46.46,63.36c.14-1.37.82-2.11,2-2.19H58.85v9a3.27,3.27,0,0,1-.2,1.2,2.44,2.44,0,0,1-.57.85,2.68,2.68,0,0,1-.9.53A5.07,5.07,0,0,1,56,73H44.24V68.88h2.2l0-5.6Zm8.3,5.52V65.16H50.51v3.71Z" transform="translate(-4.21 -52.38)" style="fill:#feffff"/><path d="M61,63.36c.19-1.38.9-2.12,2.11-2.19H73.41v7.71h2.31V73h-2.2a8.74,8.74,0,0,1-1.17,3.18,10.08,10.08,0,0,1-2.54,2.68H65c.51-.37,1-.76,1.49-1.17a9.69,9.69,0,0,0,1.32-1.32,9,9,0,0,0,1-1.53A6.77,6.77,0,0,0,69.45,73H62.69Q60.85,73,61,71V67.16c0-1.25,0-2.51,0-3.8m8.38,1.8H65.09v3.72h4.26Z" transform="translate(-4.21 -52.38)" style="fill:#feffff"/><path d="M77.72,68.88l0-5.52c.17-1.37.86-2.11,2.05-2.19h2v3.6a10.44,10.44,0,0,1,1.36-1.92A5.32,5.32,0,0,1,84.4,61.8a3.9,3.9,0,0,1,1.25-.47A11.1,11.1,0,0,1,87,61.17H97.77v7.71h2.32V73H75.36V68.88Zm16,0V65.16H87a8.48,8.48,0,0,0-1.41.09,4.76,4.76,0,0,0-1.45.51,5.32,5.32,0,0,0-1.4,1.14,8.25,8.25,0,0,0-1.26,2Z" transform="translate(-4.21 -52.38)" style="fill:#feffff"/><path d="M99.75,68.88h11.92V65.16h-7.9A3.13,3.13,0,0,1,103,65a1.59,1.59,0,0,1-.67-.42,2,2,0,0,1-.44-.76,3.58,3.58,0,0,1-.13-1.21V61.17h14V63.5c0,.72,0,1.45,0,2.18s0,1.45,0,2.18v2.31a3,3,0,0,1-.87,1.88,3.68,3.68,0,0,1-2.06.91H99.75Zm7.41-13.4a2.12,2.12,0,0,1,.83.17,2.05,2.05,0,0,1,.67.44,2.28,2.28,0,0,1,.44.68,2.12,2.12,0,0,1,.16.83,2.05,2.05,0,0,1-.16.81,2.31,2.31,0,0,1-.44.66,2.08,2.08,0,0,1-.67.45,2.11,2.11,0,0,1-1.66,0,2.08,2.08,0,0,1-.67-.45,2.31,2.31,0,0,1-.44-.66,2.05,2.05,0,0,1-.16-.81,2.12,2.12,0,0,1,.16-.83,2.28,2.28,0,0,1,.44-.68,2.05,2.05,0,0,1,.67-.44,2.12,2.12,0,0,1,.83-.17" transform="translate(-4.21 -52.38)" style="fill:#feffff"/><polyline points="6.2 3.94 0 5.98 0 0.16 6.06 0.16" style="fill:#feffff"/><path d="M10.27,52.54l.07.68s4.05-1.91,4.7,0,.37,10,.31,11.61,0,4.39,9.94,3.56c6.5-.63,7.25-4.31,7.21-5.26V60.37a5.46,5.46,0,0,0,3-.41s1.3,7.9-2.89,10-12.76,3.57-12.76,3.57-3.19-4.85-6.95-.34c-1-.47-1-2.41-1-2.41s1.33-12.53.45-14.1c-.24-1.19-1.4-1.63-1.91-1.32v.92" transform="translate(-4.21 -52.38)" style="fill:#feffff"/><path d="M29,57.58a2.09,2.09,0,1,1-2.09-2.09A2.1,2.1,0,0,1,29,57.58" transform="translate(-4.21 -52.38)" style="fill:#feffff"/><path d="M23.29,57.59A2.09,2.09,0,1,1,21.2,55.5a2.1,2.1,0,0,1,2.09,2.09" transform="translate(-4.21 -52.38)" style="fill:#feffff"/><path d="M16.08,72.06a3.25,3.25,0,1,0,3.25,3.24A3.24,3.24,0,0,0,16.08,72.06Zm0,5.76a2.52,2.52,0,1,1,2.53-2.52A2.52,2.52,0,0,1,16.08,77.82Z" transform="translate(-4.21 -52.38)" style="fill:#feffff"/><path d="M29.29,72.06a3.25,3.25,0,1,0,3.25,3.25A3.25,3.25,0,0,0,29.29,72.06Zm0,5.77a2.52,2.52,0,1,1,2.52-2.52A2.52,2.52,0,0,1,29.29,77.83Z" transform="translate(-4.21 -52.38)" style="fill:#feffff"/><path d="M102.13,77.81a.41.41,0,0,1,.19,0,.4.4,0,0,1,.15.1.57.57,0,0,1,.11.16.45.45,0,0,1,0,.37.61.61,0,0,1-.26.26.58.58,0,0,1-.19,0,.63.63,0,0,1-.19,0,.53.53,0,0,1-.15-.11.5.5,0,0,1-.14-.33.41.41,0,0,1,0-.19.54.54,0,0,1,.1-.16.49.49,0,0,1,.15-.1.43.43,0,0,1,.19,0" transform="translate(-4.21 -52.38)" style="fill:#f39438"/><path d="M106.3,77.45a1.4,1.4,0,0,1-1.5,1.32,1.53,1.53,0,0,1-1.18-.45,1.85,1.85,0,0,1-.41-1.29,1.87,1.87,0,0,1,.43-1.3,1.47,1.47,0,0,1,1.16-.48,1.57,1.57,0,0,1,1.06.36,1.27,1.27,0,0,1,.44.93h-.9a1.42,1.42,0,0,0-.05-.22.59.59,0,0,0-.13-.18A.5.5,0,0,0,105,76a.64.64,0,0,0-.74.22,1.5,1.5,0,0,0-.17.78,1.4,1.4,0,0,0,.17.76.62.62,0,0,0,.92.1.77.77,0,0,0,.19-.44Z" transform="translate(-4.21 -52.38)" style="fill:#f39438"/><path d="M108.43,78.77a1.64,1.64,0,0,1-1.25-.47,1.72,1.72,0,0,1-.46-1.27,1.81,1.81,0,0,1,.46-1.3,1.87,1.87,0,0,1,2.5,0,1.81,1.81,0,0,1,.46,1.3,1.72,1.72,0,0,1-.46,1.27,1.64,1.64,0,0,1-1.25.47m0-.73a.72.72,0,0,0,.6-.26,1.17,1.17,0,0,0,.21-.76,1.22,1.22,0,0,0-.21-.77.72.72,0,0,0-.6-.26.74.74,0,0,0-.6.26,1.22,1.22,0,0,0-.2.77,1.17,1.17,0,0,0,.2.76.74.74,0,0,0,.6.26" transform="translate(-4.21 -52.38)" style="fill:#f39438"/><path d="M110.76,78.69V75.34h.84v.54a.82.82,0,0,1,.14-.26,1,1,0,0,1,.85-.37,1,1,0,0,1,.91.55l.11-.18a.9.9,0,0,1,.79-.37,1.15,1.15,0,0,1,.86.32,1.29,1.29,0,0,1,.3.9v2.22h-.88v-2a1,1,0,0,0-.12-.55.41.41,0,0,0-.38-.19.55.55,0,0,0-.43.17.75.75,0,0,0-.14.5v2h-.89V76.58c0-.4-.17-.6-.53-.6a.53.53,0,0,0-.41.17.8.8,0,0,0-.14.5v2h-.88Z" transform="translate(-4.21 -52.38)" style="fill:#f39438"/></svg>