<svg id="Layer_1" data-name="Layer 1" xmlns="http://www.w3.org/2000/svg" viewBox="0 0 500 500"><defs><style>.cls-1{fill:#28a6d9;}.cls-2{fill:#f39438;}</style></defs><title>Untitled-1</title><path class="cls-1" d="M152.67,210.53q1.17-9.24,9.25-9.75h9v68.65h11.07v18.2H152.82q0-10,0-19.55t0-19q0-9.54,0-19.08T152.67,210.53Z"/><path class="cls-1" d="M190.24,244.75q.94-9.24,9.1-9.83h46.3V275a14.49,14.49,0,0,1-.91,5.38,10.47,10.47,0,0,1-2.55,3.79,11.15,11.15,0,0,1-4,2.36,20.23,20.23,0,0,1-5.2,1.06H180.34v-18.2h9.82l.08-25Zm37.12,24.68V252.76l-19,.07v16.6Z"/><path class="cls-1" d="M255.1,244.75q1.32-9.31,9.47-9.83h46.15v34.51h10.34v18.2h-9.83A38.92,38.92,0,0,1,306,301.86a44.75,44.75,0,0,1-11.36,12H273q3.42-2.47,6.66-5.21a48.28,48.28,0,0,0,5.9-5.89,39.78,39.78,0,0,0,4.62-6.88,29.43,29.43,0,0,0,2.84-8.23H262.82q-8.29.15-7.65-8.95,0-8.6,0-17T255.1,244.75Zm37.49,24.68V252.76H273.52v16.67Z"/><path class="cls-1" d="M330,269.43l.08-24.68q1.16-9.24,9.17-9.83h8.95L348.14,251a49.46,49.46,0,0,1,6.08-8.55,24.85,24.85,0,0,1,5.64-4.7,17.12,17.12,0,0,1,5.61-2.11,56.43,56.43,0,0,1,6-.73h48.12v34.51H430v18.2H319.46v-18.2Zm71.49,0V252.76H371.36a34.81,34.81,0,0,0-6.29.44,20.38,20.38,0,0,0-6.48,2.25,23.82,23.82,0,0,0-6.26,5.1,36.48,36.48,0,0,0-5.65,8.88Z"/><path class="cls-1" d="M428.51,269.43H481.8V252.76H446.49a13.88,13.88,0,0,1-3.67-.62,7,7,0,0,1-3-1.86,8.63,8.63,0,0,1-2-3.42,16.16,16.16,0,0,1-.62-5.39v-6.55h62.68v10.41c0,3.25,0,6.51,0,9.76s0,6.5,0,9.75v10.34a13.25,13.25,0,0,1-3.89,8.41,16.43,16.43,0,0,1-9.21,4H428.51Zm33.12-59.91a9.7,9.7,0,0,1,3.72.72,8.9,8.9,0,0,1,3,2,9.4,9.4,0,0,1,2,3A9.63,9.63,0,0,1,471,219a9.19,9.19,0,0,1-.73,3.6,9.72,9.72,0,0,1-2,3,8.74,8.74,0,0,1-3,2,9.82,9.82,0,0,1-7.43,0,8.74,8.74,0,0,1-3-2,9.72,9.72,0,0,1-2-3,9.19,9.19,0,0,1-.73-3.6,9.63,9.63,0,0,1,.73-3.71,9.4,9.4,0,0,1,2-3,8.9,8.9,0,0,1,3-2A9.65,9.65,0,0,1,461.63,209.52Z"/><path class="cls-1" d="M141.08,229.52s5.78,35.31-12.94,44.9-57.07,16-57.07,16-14.24-21.73-31-1.52c-4.72-2.13-4.42-10.81-4.42-10.81s5.94-56,2-63c-1.06-5.33-6.24-7.31-8.52-5.94v4.11l-27.7,9.14v-26H28.45l.3,3s18.12-8.52,21,.15,1.67,44.61,1.37,51.91,0,19.64,44.44,15.91c29.07-2.83,32.42-19.26,32.27-23.52V231.38A24.59,24.59,0,0,0,141.08,229.52Z"/><circle class="cls-1" cx="113.56" cy="298.18" r="14.51"/><circle class="cls-1" cx="54.68" cy="298.18" r="14.51"/><circle class="cls-1" cx="102.79" cy="218.88" r="9.35"/><circle class="cls-1" cx="77.29" cy="218.93" r="9.35"/><path class="cls-2" d="M439.15,309.34a2.14,2.14,0,0,1,.84.17,2,2,0,0,1,.69.47,2.34,2.34,0,0,1,.47.69,2.21,2.21,0,0,1,.17.84,2.09,2.09,0,0,1-.17.83,2.18,2.18,0,0,1-.47.68,1.94,1.94,0,0,1-.69.46,2.14,2.14,0,0,1-1.67,0,1.94,1.94,0,0,1-.69-.46,2,2,0,0,1-.46-.68,2.09,2.09,0,0,1-.17-.83,2.21,2.21,0,0,1,.17-.84,2.14,2.14,0,0,1,.46-.69,2,2,0,0,1,.69-.47A2.12,2.12,0,0,1,439.15,309.34Z"/><path class="cls-2" d="M457.78,307.71a6.55,6.55,0,0,1-2.08,4.37,7.74,7.74,0,0,1-9.88-.44,8.21,8.21,0,0,1-1.85-5.78,8.41,8.41,0,0,1,1.91-5.81,6.63,6.63,0,0,1,5.19-2.17,7,7,0,0,1,4.74,1.6,5.67,5.67,0,0,1,2,4.2h-4a3,3,0,0,0-.23-1,2.29,2.29,0,0,0-.56-.78,2.41,2.41,0,0,0-.83-.51,3.06,3.06,0,0,0-1.06-.18,2.54,2.54,0,0,0-2.26,1.19,6.36,6.36,0,0,0-.78,3.48,6.08,6.08,0,0,0,.78,3.4,2.54,2.54,0,0,0,2.26,1.16,2.45,2.45,0,0,0,1.82-.75,3.12,3.12,0,0,0,.86-2Z"/><path class="cls-2" d="M467.31,313.65a7.42,7.42,0,0,1-5.58-2.11,7.75,7.75,0,0,1-2.08-5.68,8,8,0,0,1,2.08-5.81,8.27,8.27,0,0,1,11.17,0,8.07,8.07,0,0,1,2.07,5.81,7.78,7.78,0,0,1-2.07,5.68A7.43,7.43,0,0,1,467.31,313.65Zm0-3.29A3.22,3.22,0,0,0,470,309.2a5.31,5.31,0,0,0,.92-3.39,5.46,5.46,0,0,0-.92-3.45,3.67,3.67,0,0,0-5.37,0,5.52,5.52,0,0,0-.91,3.45,5.37,5.37,0,0,0,.91,3.39A3.21,3.21,0,0,0,467.31,310.36Z"/><path class="cls-2" d="M477.71,313.27v-15h3.75v2.42a4.33,4.33,0,0,1,.67-1.14,4.5,4.5,0,0,1,3.8-1.68,4.23,4.23,0,0,1,3.26,1.35,3.72,3.72,0,0,1,.77,1.12l.5-.79a4.08,4.08,0,0,1,3.56-1.68,5,5,0,0,1,3.81,1.46,5.59,5.59,0,0,1,1.38,4v9.93h-4v-8.8a4.46,4.46,0,0,0-.55-2.49,1.89,1.89,0,0,0-1.7-.8,2.39,2.39,0,0,0-1.9.75,3.35,3.35,0,0,0-.64,2.21v9.13h-4v-9.45c0-1.76-.79-2.64-2.36-2.64a2.28,2.28,0,0,0-1.83.75,3.35,3.35,0,0,0-.64,2.21v9.13h-4Z"/></svg>